<svg width="142" height="29" viewBox="0 0 142 29" fill="none" xmlns="http://www.w3.org/2000/svg">
<path d="M38.5505 4.33832C37.8626 4.33832 37.2644 4.56763 36.7734 5.02125C36.2849 5.47238 36.0406 6.02321 36.0406 6.65878C36.0406 7.29435 36.2899 7.89253 36.7809 8.35363C37.2769 8.81723 37.8801 9.05401 38.5779 9.05401C39.2758 9.05401 39.8566 8.82221 40.3426 8.3636C40.8311 7.90998 41.0754 7.35167 41.0754 6.70863C41.0754 6.06558 40.8261 5.49232 40.3351 5.03122C39.8391 4.57012 39.2409 4.33832 38.5505 4.33832Z" fill="black"/>
<path d="M40.5669 9.85663H36.5316V23.6024H40.5669V9.85663Z" fill="black"/>
<path d="M51.6582 9.51013C50.9279 9.51013 50.2101 9.64223 49.5222 9.90145C48.919 10.1233 48.2536 10.4996 47.5357 11.0305V9.85658H43.5005V23.6024H47.5357V18.0517C47.5357 16.6759 47.5881 15.7761 47.6928 15.3748C47.8872 14.6122 48.2386 14.0065 48.7371 13.5728C49.2281 13.1541 49.8238 12.9397 50.5067 12.9397C51.0276 12.9397 51.4713 13.0668 51.8227 13.3136C52.1766 13.5703 52.4259 13.9417 52.568 14.4252C52.7175 14.9287 52.7948 15.9805 52.7948 17.5607V23.6024H56.7901V14.5748C56.7901 12.9871 56.344 11.7733 55.4667 10.9557C54.4273 9.99616 53.1462 9.51013 51.6582 9.51013Z" fill="black"/>
<path d="M64.412 4.91907H60.3767V9.85658H58.5049V13.1017H60.3767V23.6023H64.412V13.1017H66.5779V9.85658H64.412V4.91907Z" fill="black"/>
<path d="M77.2679 16.5937C77.2679 17.8349 77.1956 18.6449 77.0511 19.0039C76.8616 19.4824 76.5675 19.8488 76.1787 20.0955C75.7874 20.3423 75.3014 20.4669 74.7381 20.4669C74.1748 20.4669 73.6937 20.3423 73.3149 20.093C72.9261 19.8413 72.6544 19.4949 72.4799 19.0387C72.3005 18.5702 72.2083 17.7128 72.2083 16.4815V9.85413H68.1356V15.6042C68.1356 17.79 68.2777 19.2556 68.5693 20.0906C68.9806 21.2969 69.7034 22.249 70.7203 22.9244C71.7347 23.6024 73.0756 23.9463 74.7057 23.9463C76.2036 23.9463 77.4623 23.6522 78.4468 23.074C79.4288 22.4958 80.184 21.6583 80.6875 20.5766C81.1013 19.6868 81.3031 18.0916 81.3031 15.7064V9.85662H77.2679V16.5937Z" fill="black"/>
<path d="M86.2008 4.33832C85.5129 4.33832 84.9147 4.56763 84.4237 5.02125C83.9352 5.47238 83.6909 6.02321 83.6909 6.65878C83.6909 7.29435 83.9402 7.89253 84.4312 8.35363C84.9272 8.81723 85.5303 9.05401 86.2282 9.05401C86.9261 9.05401 87.5068 8.82221 87.9929 8.3636C88.4814 7.90998 88.7256 7.35167 88.7256 6.70863C88.7256 6.06558 88.4764 5.49232 87.9854 5.03122C87.4894 4.57012 86.8912 4.33832 86.2008 4.33832Z" fill="black"/>
<path d="M88.2173 9.85663H84.182V23.6024H88.2173V9.85663Z" fill="black"/>
<path d="M99.5677 9.51013C98.6729 9.51013 97.818 9.66965 97.0304 9.98121C96.3749 10.2379 95.7443 10.6143 95.1586 11.0978V9.85658H91.1508V28.5H95.1586V22.411C95.7842 22.9095 96.4173 23.2833 97.0454 23.5201C97.7856 23.8067 98.6006 23.9488 99.4605 23.9488C101.39 23.9488 103.08 23.2534 104.48 21.8776C105.884 20.5092 106.594 18.7845 106.594 16.7532C106.594 14.7218 105.906 12.8974 104.55 11.5465C103.189 10.1956 101.514 9.51013 99.5677 9.51013ZM102.571 16.7158C102.571 17.8199 102.202 18.7421 101.477 19.4525C100.757 20.1603 99.8568 20.5167 98.8025 20.5167C97.7482 20.5167 96.7936 20.1628 96.0808 19.4699C95.363 18.7745 94.9966 17.8423 94.9966 16.7058C94.9966 15.5692 95.353 14.6894 96.0808 13.9965C96.7961 13.3136 97.7133 12.9671 98.8025 12.9671C99.8917 12.9671 100.789 13.3211 101.497 14.014C102.207 14.7094 102.569 15.6216 102.569 16.7158H102.571Z" fill="black"/>
<path d="M119.968 11.0928C119.388 10.6118 118.767 10.2379 118.114 9.98121C117.326 9.66965 116.474 9.51013 115.579 9.51013C113.635 9.51013 111.96 10.1956 110.602 11.5465C109.246 12.8974 108.561 14.6495 108.561 16.7532C108.561 18.8568 109.271 20.5092 110.669 21.8776C112.072 23.2534 113.76 23.9488 115.686 23.9488C116.546 23.9488 117.356 23.8042 118.092 23.5201C118.715 23.2833 119.345 22.9095 119.968 22.411V23.6024H124.004V9.85658H119.968V11.0928ZM119.049 13.9915C119.774 14.6869 120.128 15.5742 120.128 16.7033C120.128 17.8324 119.764 18.772 119.049 19.4674C118.323 20.1703 117.439 20.5142 116.334 20.5142C115.23 20.5142 114.388 20.1578 113.67 19.45C112.95 18.7396 112.583 17.8174 112.583 16.7133C112.583 15.6091 112.942 14.7069 113.653 14.0115C114.355 13.3186 115.253 12.9646 116.322 12.9646C117.391 12.9646 118.336 13.3111 119.049 13.989V13.9915Z" fill="black"/>
<path d="M137.445 9.85663L133.407 17.9944L129.798 9.9638L129.749 9.85663H125.601L131.207 22.421L128.124 28.5H132.321L141.485 10.1059L141.61 9.85663H137.445Z" fill="black"/>
<path d="M5.30639 16.5363L0.615631 18.61C0.216842 17.3114 0 15.9306 0 14.5C0 9.5774 2.53979 5.24805 6.38063 2.75562C4.19477 6.5491 3.67634 11.6062 5.3039 16.5363H5.30639Z" fill="#0037C2"/>
<path d="M23.0301 8.70752L7.58454 15.5293C5.87971 10.5644 6.35826 5.44991 8.53415 1.60907C8.81082 1.48943 9.08997 1.37976 9.3766 1.28256C14.3839 0.539812 19.8947 3.4111 23.0277 8.70752H23.0301Z" fill="#7094F4"/>
<path d="M26.0508 7.37164L23.8325 8.35117C20.9313 3.41116 15.9664 0.559817 11.2507 0.771674C12.1405 0.592219 13.0602 0.5 14.0024 0.5C19.1293 0.5 23.6182 3.25664 26.0508 7.37414V7.37164Z" fill="#A9BFF8"/>
<path d="M17.1205 28.151C16.1186 28.3803 15.0718 28.5 14.0025 28.5C9.01764 28.5 4.64342 25.8954 2.16345 21.9723L6.57506 19.5272C8.95782 24.041 12.9009 27.1491 17.1205 28.151Z" fill="#0037C2"/>
<path d="M22.0506 25.9527C21.4474 26.3814 20.8119 26.7578 20.1464 27.0793C15.6226 26.3116 11.3207 23.1014 8.78589 18.3034L23.7355 10.0236C26.5071 15.7836 25.702 22.2091 22.0481 25.9527H22.0506Z" fill="#7094F4"/>
<path d="M28.0026 14.4975C28.0026 18.5377 26.2903 22.1767 23.5536 24.7364C26.5794 20.9155 27.0978 14.9686 24.5032 9.60235L26.6193 8.42841C27.5041 10.2628 28.0001 12.3241 28.0001 14.5L28.0026 14.4975Z" fill="#A9BFF8"/>
</svg>
