<svg width="232" height="46" viewBox="0 0 232 46" fill="none" xmlns="http://www.w3.org/2000/svg">
<rect x="0.5" y="0.5" width="231" height="44.1646" rx="22.0823" fill="#0B0B0B"/>
<rect x="0.5" y="0.5" width="231" height="44.1646" rx="22.0823" stroke="#E5E5E5"/>
<path d="M32.5781 19.9303C32.5099 19.3252 32.2287 18.8564 31.7344 18.524C31.2401 18.1874 30.6179 18.0191 29.8679 18.0191C29.331 18.0191 28.8665 18.1043 28.4744 18.2747C28.0824 18.4409 27.7777 18.6711 27.5604 18.9651C27.3473 19.2549 27.2408 19.5851 27.2408 19.9559C27.2408 20.2669 27.3132 20.5354 27.4581 20.7613C27.6072 20.9871 27.8011 21.1767 28.0398 21.3301C28.2827 21.4793 28.5426 21.605 28.8196 21.7073C29.0966 21.8053 29.3629 21.8863 29.6186 21.9502L30.897 22.2826C31.3146 22.3848 31.7429 22.5233 32.1818 22.698C32.6207 22.8728 33.0277 23.1029 33.4027 23.3884C33.7777 23.6739 34.0803 24.0276 34.3104 24.4495C34.5447 24.8713 34.6619 25.3763 34.6619 25.9644C34.6619 26.7059 34.4702 27.3642 34.0866 27.9395C33.7074 28.5148 33.1555 28.9686 32.4311 29.301C31.7109 29.6334 30.8395 29.7996 29.8168 29.7996C28.8366 29.7996 27.9886 29.6441 27.2727 29.333C26.5568 29.0219 25.9964 28.5809 25.5916 28.0098C25.1868 27.4345 24.9631 26.7527 24.9205 25.9644H26.902C26.9403 26.4374 27.0938 26.8316 27.3622 27.1469C27.6349 27.458 27.9822 27.6902 28.4041 27.8436C28.8303 27.9928 29.2969 28.0674 29.804 28.0674C30.3622 28.0674 30.8587 27.98 31.2933 27.8053C31.7322 27.6263 32.0774 27.3792 32.3288 27.0638C32.5803 26.7442 32.706 26.3713 32.706 25.9452C32.706 25.5574 32.5952 25.2399 32.3736 24.9928C32.1563 24.7456 31.8601 24.5411 31.4851 24.3792C31.1143 24.2172 30.6946 24.0745 30.2259 23.9509L28.679 23.529C27.6307 23.2435 26.7997 22.8238 26.1861 22.2698C25.5767 21.7158 25.272 20.9828 25.272 20.0709C25.272 19.3166 25.4766 18.6583 25.8857 18.0958C26.2947 17.5333 26.8487 17.0965 27.5476 16.7854C28.2464 16.4701 29.0348 16.3124 29.9126 16.3124C30.799 16.3124 31.581 16.4679 32.2585 16.779C32.9403 17.0901 33.4773 17.5184 33.8693 18.0638C34.2614 18.605 34.4659 19.2272 34.483 19.9303H32.5781ZM36.8688 33.2641V19.7641H38.7353V21.3557H38.8951C39.0059 21.1512 39.1657 20.9147 39.3745 20.6462C39.5833 20.3777 39.873 20.1434 40.2438 19.9431C40.6145 19.7385 41.1046 19.6363 41.714 19.6363C42.5066 19.6363 43.214 19.8365 43.8361 20.2371C44.4583 20.6377 44.9462 21.2151 45.2999 21.9693C45.6578 22.7236 45.8368 23.6313 45.8368 24.6924C45.8368 25.7534 45.66 26.6632 45.3063 27.4218C44.9526 28.176 44.4668 28.7577 43.8489 29.1668C43.231 29.5716 42.5257 29.774 41.7331 29.774C41.1365 29.774 40.6486 29.6739 40.2694 29.4736C39.8944 29.2733 39.6003 29.039 39.3873 28.7705C39.1742 28.502 39.0101 28.2634 38.8951 28.0546H38.78V33.2641H36.8688ZM38.7417 24.6732C38.7417 25.3635 38.8418 25.9686 39.0421 26.4885C39.2424 27.0084 39.5321 27.4154 39.9114 27.7094C40.2907 27.9992 40.7551 28.1441 41.3049 28.1441C41.8759 28.1441 42.3532 27.9928 42.7367 27.6902C43.1202 27.3834 43.41 26.9679 43.606 26.4438C43.8063 25.9196 43.9064 25.3294 43.9064 24.6732C43.9064 24.0255 43.8084 23.4438 43.6124 22.9282C43.4206 22.4125 43.1309 22.0056 42.7431 21.7073C42.3596 21.409 41.8801 21.2598 41.3049 21.2598C40.7509 21.2598 40.2821 21.4026 39.8986 21.6881C39.5194 21.9736 39.2317 22.372 39.0357 22.8834C38.8397 23.3948 38.7417 23.9914 38.7417 24.6732ZM52.1138 29.7804C51.1934 29.7804 50.3901 29.5695 49.704 29.1476C49.0179 28.7257 48.4853 28.1355 48.106 27.377C47.7267 26.6185 47.5371 25.7321 47.5371 24.7179C47.5371 23.6995 47.7267 22.8088 48.106 22.0461C48.4853 21.2833 49.0179 20.6909 49.704 20.2691C50.3901 19.8472 51.1934 19.6363 52.1138 19.6363C53.0343 19.6363 53.8375 19.8472 54.5236 20.2691C55.2097 20.6909 55.7424 21.2833 56.1216 22.0461C56.5009 22.8088 56.6905 23.6995 56.6905 24.7179C56.6905 25.7321 56.5009 26.6185 56.1216 27.377C55.7424 28.1355 55.2097 28.7257 54.5236 29.1476C53.8375 29.5695 53.0343 29.7804 52.1138 29.7804ZM52.1202 28.176C52.7168 28.176 53.2111 28.0184 53.6032 27.703C53.9952 27.3877 54.285 26.9679 54.4725 26.4438C54.6642 25.9196 54.7601 25.3422 54.7601 24.7115C54.7601 24.0851 54.6642 23.5098 54.4725 22.9857C54.285 22.4573 53.9952 22.0333 53.6032 21.7137C53.2111 21.3941 52.7168 21.2343 52.1202 21.2343C51.5194 21.2343 51.0208 21.3941 50.6245 21.7137C50.2324 22.0333 49.9405 22.4573 49.7488 22.9857C49.5613 23.5098 49.4675 24.0851 49.4675 24.7115C49.4675 25.3422 49.5613 25.9196 49.7488 26.4438C49.9405 26.9679 50.2324 27.3877 50.6245 27.703C51.0208 28.0184 51.5194 28.176 52.1202 28.176ZM60.7351 23.7527V29.5823H58.8239V19.7641H60.6584V21.3621H60.7798C61.0057 20.8422 61.3594 20.4246 61.8409 20.1093C62.3267 19.7939 62.9382 19.6363 63.6754 19.6363C64.3445 19.6363 64.9304 19.7769 65.4332 20.0581C65.9361 20.3351 66.326 20.7485 66.603 21.2982C66.88 21.8479 67.0185 22.5276 67.0185 23.3372V29.5823H65.1072V23.5674C65.1072 22.8557 64.9219 22.2996 64.5511 21.899C64.1804 21.4942 63.6712 21.2918 63.0234 21.2918C62.5803 21.2918 62.1861 21.3877 61.8409 21.5794C61.5 21.7712 61.2294 22.0524 61.0291 22.4232C60.8331 22.7897 60.7351 23.2328 60.7351 23.7527ZM76.9389 22.1611L75.2067 22.4679C75.1342 22.2463 75.0192 22.0354 74.8615 21.8351C74.7081 21.6348 74.4993 21.4708 74.2351 21.3429C73.9709 21.2151 73.6406 21.1512 73.2443 21.1512C72.7031 21.1512 72.2514 21.2726 71.8892 21.5155C71.527 21.7542 71.3459 22.0631 71.3459 22.4424C71.3459 22.7705 71.4673 23.0347 71.7102 23.235C71.9531 23.4353 72.3452 23.5993 72.8864 23.7272L74.446 24.0851C75.3494 24.2939 76.0227 24.6157 76.4659 25.0503C76.9091 25.485 77.1307 26.0496 77.1307 26.7442C77.1307 27.3323 76.9602 27.8564 76.6193 28.3167C76.2827 28.7726 75.8118 29.1306 75.2067 29.3905C74.6058 29.6505 73.9091 29.7804 73.1165 29.7804C72.017 29.7804 71.12 29.5461 70.4254 29.0773C69.7308 28.6043 69.3047 27.9331 69.147 27.0638L70.9943 26.7826C71.1094 27.2641 71.3459 27.6284 71.7038 27.8756C72.0618 28.1185 72.5284 28.2399 73.1037 28.2399C73.7301 28.2399 74.2308 28.11 74.6058 27.85C74.9808 27.5858 75.1683 27.2641 75.1683 26.8848C75.1683 26.578 75.0533 26.3202 74.8232 26.1114C74.5973 25.9026 74.25 25.7449 73.7812 25.6384L72.1193 25.274C71.2031 25.0652 70.5256 24.7328 70.0866 24.2769C69.652 23.8209 69.4347 23.2435 69.4347 22.5446C69.4347 21.9651 69.5966 21.458 69.9205 21.0233C70.2443 20.5887 70.6918 20.2499 71.2628 20.007C71.8338 19.7598 72.4879 19.6363 73.2251 19.6363C74.2862 19.6363 75.1214 19.8664 75.7308 20.3266C76.3402 20.7826 76.7429 21.3941 76.9389 22.1611ZM83.3677 29.7804C82.4473 29.7804 81.644 29.5695 80.9579 29.1476C80.2718 28.7257 79.7392 28.1355 79.3599 27.377C78.9806 26.6185 78.791 25.7321 78.791 24.7179C78.791 23.6995 78.9806 22.8088 79.3599 22.0461C79.7392 21.2833 80.2718 20.6909 80.9579 20.2691C81.644 19.8472 82.4473 19.6363 83.3677 19.6363C84.2882 19.6363 85.0914 19.8472 85.7775 20.2691C86.4636 20.6909 86.9963 21.2833 87.3755 22.0461C87.7548 22.8088 87.9444 23.6995 87.9444 24.7179C87.9444 25.7321 87.7548 26.6185 87.3755 27.377C86.9963 28.1355 86.4636 28.7257 85.7775 29.1476C85.0914 29.5695 84.2882 29.7804 83.3677 29.7804ZM83.3741 28.176C83.9707 28.176 84.465 28.0184 84.8571 27.703C85.2491 27.3877 85.5389 26.9679 85.7264 26.4438C85.9181 25.9196 86.014 25.3422 86.014 24.7115C86.014 24.0851 85.9181 23.5098 85.7264 22.9857C85.5389 22.4573 85.2491 22.0333 84.8571 21.7137C84.465 21.3941 83.9707 21.2343 83.3741 21.2343C82.7733 21.2343 82.2747 21.3941 81.8784 21.7137C81.4863 22.0333 81.1944 22.4573 81.0027 22.9857C80.8152 23.5098 80.7214 24.0851 80.7214 24.7115C80.7214 25.3422 80.8152 25.9196 81.0027 26.4438C81.1944 26.9679 81.4863 27.3877 81.8784 27.703C82.2747 28.0184 82.7733 28.176 83.3741 28.176ZM90.0778 29.5823V19.7641H91.9251V21.3238H92.0273C92.2063 20.7953 92.5217 20.3799 92.9734 20.0773C93.4293 19.7705 93.945 19.6171 94.5202 19.6171C94.6396 19.6171 94.7802 19.6213 94.9421 19.6299C95.1083 19.6384 95.2383 19.649 95.332 19.6618V21.4899C95.2553 21.4686 95.119 21.4452 94.9229 21.4196C94.7269 21.3898 94.5309 21.3749 94.3349 21.3749C93.8832 21.3749 93.4805 21.4708 93.1268 21.6625C92.7773 21.85 92.5004 22.1121 92.2958 22.4488C92.0913 22.7811 91.989 23.1604 91.989 23.5865V29.5823H90.0778ZM100.866 29.7804C99.8986 29.7804 99.0655 29.5738 98.3667 29.1604C97.6721 28.7428 97.1351 28.1568 96.7559 27.4026C96.3809 26.6441 96.1934 25.7556 96.1934 24.7371C96.1934 23.7314 96.3809 22.8451 96.7559 22.078C97.1351 21.311 97.6635 20.7122 98.3411 20.2818C99.0229 19.8515 99.8198 19.6363 100.732 19.6363C101.286 19.6363 101.823 19.7279 102.343 19.9111C102.862 20.0943 103.329 20.382 103.742 20.774C104.156 21.1661 104.482 21.6753 104.72 22.3017C104.959 22.9239 105.078 23.6803 105.078 24.5709V25.2485H97.2736V23.8167H103.205C103.205 23.3138 103.103 22.8685 102.899 22.4807C102.694 22.0887 102.406 21.7797 102.036 21.5539C101.669 21.328 101.239 21.2151 100.744 21.2151C100.208 21.2151 99.7388 21.3472 99.3382 21.6114C98.9419 21.8713 98.6351 22.2122 98.4178 22.6341C98.2047 23.0517 98.0982 23.5056 98.0982 23.9956V25.1142C98.0982 25.7705 98.2132 26.3287 98.4434 26.789C98.6777 27.2492 99.0037 27.6007 99.4213 27.8436C99.839 28.0823 100.327 28.2016 100.885 28.2016C101.247 28.2016 101.578 28.1505 101.876 28.0482C102.174 27.9417 102.432 27.784 102.649 27.5752C102.867 27.3664 103.033 27.1086 103.148 26.8017L104.957 27.1277C104.812 27.6604 104.552 28.127 104.177 28.5276C103.806 28.9239 103.34 29.2328 102.777 29.4544C102.219 29.6718 101.582 29.7804 100.866 29.7804ZM110.874 29.774C110.082 29.774 109.374 29.5716 108.752 29.1668C108.134 28.7577 107.648 28.176 107.295 27.4218C106.945 26.6632 106.771 25.7534 106.771 24.6924C106.771 23.6313 106.947 22.7236 107.301 21.9693C107.659 21.2151 108.149 20.6377 108.771 20.2371C109.393 19.8365 110.099 19.6363 110.887 19.6363C111.496 19.6363 111.987 19.7385 112.357 19.9431C112.732 20.1434 113.022 20.3777 113.227 20.6462C113.435 20.9147 113.597 21.1512 113.712 21.3557H113.827V16.4914H115.739V29.5823H113.872V28.0546H113.712C113.597 28.2634 113.431 28.502 113.214 28.7705C113.001 29.039 112.707 29.2733 112.332 29.4736C111.957 29.6739 111.471 29.774 110.874 29.774ZM111.296 28.1441C111.846 28.1441 112.31 27.9992 112.69 27.7094C113.073 27.4154 113.363 27.0084 113.559 26.4885C113.759 25.9686 113.859 25.3635 113.859 24.6732C113.859 23.9914 113.761 23.3948 113.565 22.8834C113.369 22.372 113.082 21.9736 112.702 21.6881C112.323 21.4026 111.854 21.2598 111.296 21.2598C110.721 21.2598 110.241 21.409 109.858 21.7073C109.474 22.0056 109.185 22.4125 108.989 22.9282C108.797 23.4438 108.701 24.0255 108.701 24.6732C108.701 25.3294 108.799 25.9196 108.995 26.4438C109.191 26.9679 109.481 27.3834 109.864 27.6902C110.252 27.9928 110.729 28.1441 111.296 28.1441ZM123.384 29.5823V16.4914H125.295V21.3557H125.41C125.521 21.1512 125.68 20.9147 125.889 20.6462C126.098 20.3777 126.388 20.1434 126.759 19.9431C127.129 19.7385 127.619 19.6363 128.229 19.6363C129.021 19.6363 129.729 19.8365 130.351 20.2371C130.973 20.6377 131.461 21.2151 131.815 21.9693C132.173 22.7236 132.352 23.6313 132.352 24.6924C132.352 25.7534 132.175 26.6632 131.821 27.4218C131.467 28.176 130.982 28.7577 130.364 29.1668C129.746 29.5716 129.04 29.774 128.248 29.774C127.651 29.774 127.163 29.6739 126.784 29.4736C126.409 29.2733 126.115 29.039 125.902 28.7705C125.689 28.502 125.525 28.2634 125.41 28.0546H125.25V29.5823H123.384ZM125.256 24.6732C125.256 25.3635 125.357 25.9686 125.557 26.4885C125.757 27.0084 126.047 27.4154 126.426 27.7094C126.805 27.9992 127.27 28.1441 127.82 28.1441C128.391 28.1441 128.868 27.9928 129.251 27.6902C129.635 27.3834 129.925 26.9679 130.121 26.4438C130.321 25.9196 130.421 25.3294 130.421 24.6732C130.421 24.0255 130.323 23.4438 130.127 22.9282C129.935 22.4125 129.646 22.0056 129.258 21.7073C128.874 21.409 128.395 21.2598 127.82 21.2598C127.266 21.2598 126.797 21.4026 126.413 21.6881C126.034 21.9736 125.746 22.372 125.55 22.8834C125.354 23.3948 125.256 23.9914 125.256 24.6732ZM135.372 33.2641C135.086 33.2641 134.826 33.2407 134.592 33.1938C134.358 33.1512 134.183 33.1043 134.068 33.0532L134.528 31.4871C134.877 31.5809 135.189 31.6213 135.461 31.6086C135.734 31.5958 135.975 31.4935 136.184 31.3017C136.397 31.11 136.584 30.7968 136.746 30.3621L136.983 29.7101L133.39 19.7641H135.436L137.922 27.3834H138.025L140.511 19.7641H142.563L138.517 30.8926C138.329 31.404 138.091 31.8365 137.801 32.1902C137.511 32.5482 137.166 32.8167 136.765 32.9956C136.365 33.1746 135.9 33.2641 135.372 33.2641Z" fill="#FCFCFC"/>
<path d="M159.642 25.4205H154.003V12.1101H159.642V13.9045H155.894V17.8107H159.159V19.6051H155.894V23.5113H159.641V25.4174L159.642 25.4205ZM165.625 24.5321C166.224 23.9404 166.524 23.0216 166.524 21.7743V15.5505C166.524 14.4547 166.242 13.6062 165.68 13.0081C165.117 12.4099 164.292 12.1101 163.203 12.1101H160.402V25.4205H163.035C164.161 25.4205 165.023 25.1255 165.623 24.5321H165.625ZM162.295 13.9045H163.167C163.724 13.9045 164.107 14.048 164.317 14.3351C164.528 14.6222 164.632 15.0274 164.632 15.5505V21.9625C164.632 22.5351 164.521 22.9562 164.298 23.2242C164.075 23.4922 163.698 23.6261 163.167 23.6261H162.295V13.9045ZM187.623 25.4205V19.495H185.286V25.4205H183.395V12.1101H185.286V17.8123H187.623V12.1101H189.515V25.4205H187.623ZM195.005 22.5607L195.562 25.4205H197.453L194.505 12.1101H192.928L189.98 25.419H191.871L192.428 22.5591H195.006L195.005 22.5607ZM193.688 15.9429H193.725L194.652 20.7663H192.761L193.688 15.9429ZM199.865 25.4205H197.974V12.1101H199.865V25.4205ZM203.056 25.4205H201.165V12.1101H202.983L205.84 20.1298H205.876V12.1101H207.767V25.4205H205.987L203.094 17.4199H203.057V25.4205H203.056ZM176.168 19.0038L175.166 18.42C175.059 18.3578 174.885 18.3578 174.779 18.42L173.84 18.9655C173.52 19.1489 173.484 19.3882 173.484 19.4456V22.4299C173.484 22.8669 173.406 23.2689 173.253 23.6357C173.098 24.0042 172.879 24.3311 172.595 24.6167C172.31 24.9038 171.982 25.1271 171.612 25.2898C171.241 25.4524 170.844 25.5322 170.425 25.5322C170.005 25.5322 169.611 25.4509 169.247 25.2898C168.882 25.1287 168.557 24.9038 168.274 24.6167C167.989 24.3296 167.767 24.0026 167.606 23.6357C167.445 23.2689 167.365 22.8669 167.365 22.4299V12.1101H169.257V22.2417C169.257 22.7154 169.368 23.0647 169.591 23.288C169.814 23.5129 170.091 23.6245 170.425 23.6245C170.759 23.6245 171.037 23.5129 171.259 23.288C171.482 23.0631 171.593 22.7154 171.593 22.2417V12.1101H173.484V16.9685C173.492 16.9988 173.49 17.2253 173.744 17.3784C173.997 17.5316 174.779 17.9798 174.779 17.9798C174.886 18.042 175.06 18.042 175.166 17.9798C175.166 17.9798 175.782 17.6241 176.156 17.4008C176.529 17.1775 176.512 16.9908 176.515 16.9302V15.064C176.515 14.6286 176.589 14.2235 176.738 13.8486C176.887 13.4754 177.097 13.1516 177.368 12.8773C177.64 12.6029 177.965 12.3876 178.341 12.2329C178.718 12.0766 179.136 12 179.593 12C180.483 12 181.207 12.2935 181.763 12.8789C182.035 13.166 182.249 13.5057 182.402 13.8981C182.557 14.2905 182.633 14.7179 182.633 15.1789V15.927H180.742V15.2921C180.742 14.9189 180.638 14.5951 180.427 14.3208C180.217 14.0464 179.932 13.9092 179.574 13.9092C179.104 13.9092 178.792 14.056 178.637 14.3479C178.482 14.6414 178.406 15.0114 178.406 15.4596V22.264C178.406 22.65 178.49 22.9738 178.656 23.2354C178.824 23.4969 179.123 23.6277 179.555 23.6277C179.679 23.6277 179.811 23.6054 179.954 23.5623C180.096 23.5193 180.229 23.4475 180.353 23.347C180.464 23.2481 180.557 23.111 180.631 22.9355C180.706 22.7616 180.742 22.5431 180.742 22.2815V21.6276H182.633V22.4506C182.633 22.8621 182.556 23.2513 182.402 23.6182C182.247 23.9866 182.033 24.3136 181.763 24.5991C181.491 24.8862 181.173 25.1127 180.807 25.2818C180.441 25.4509 180.049 25.5338 179.629 25.5338C179.27 25.5338 178.906 25.4843 178.536 25.3839C178.166 25.2834 177.832 25.1095 177.534 24.8607C177.236 24.6119 176.993 24.2913 176.801 23.8973C176.61 23.5049 176.513 23.0025 176.513 22.3932V19.4663C176.513 19.4663 176.507 19.1936 176.167 19.0054L176.168 19.0038ZM173.796 30.5454H154V29.4288H173.796V30.5454Z" fill="white"/>
<path d="M186.346 28.6677C187.118 28.6677 187.621 29.1909 187.621 30.0538C187.621 30.7094 187.235 31.3809 186.357 31.3809C185.574 31.3809 185.084 30.821 185.084 29.9948C185.084 29.3249 185.504 28.6677 186.346 28.6677ZM186.919 30.006C186.919 29.5099 186.683 29.2722 186.357 29.2722C185.979 29.2722 185.765 29.5721 185.765 30.0315C185.765 30.4462 185.99 30.7732 186.343 30.7732C186.737 30.7732 186.92 30.4701 186.92 30.006H186.919ZM189.059 29.4652C189.492 29.4652 189.864 29.7906 189.864 30.4063C189.864 31.022 189.467 31.3282 189.014 31.333C188.772 31.333 188.569 31.2182 188.539 31.1703C188.539 31.2931 188.554 32.0779 188.52 32.1002C188.487 32.1257 187.984 32.1481 187.914 32.1114C187.903 32.1082 187.925 29.537 187.959 29.4541C187.962 29.4429 188.509 29.4732 188.509 29.4732C188.509 29.4955 188.506 29.6519 188.506 29.6726C188.531 29.6279 188.726 29.4652 189.057 29.4652H189.059ZM189.242 30.4143C189.242 30.1623 189.092 30.0283 188.892 30.0283C188.642 30.0283 188.525 30.1878 188.525 30.4095C188.525 30.6535 188.694 30.8019 188.878 30.8019C189.109 30.8019 189.242 30.6424 189.242 30.4127V30.4143ZM190.636 30.5546C190.636 30.7508 190.776 30.8736 191.03 30.8736C191.228 30.8736 191.364 30.8035 191.461 30.7444C191.497 30.7811 191.648 31.089 191.652 31.1448C191.553 31.2373 191.3 31.3553 191.002 31.3553C190.337 31.3553 190.068 30.9071 190.068 30.4334C190.068 29.9326 190.377 29.4668 190.955 29.4668C191.444 29.4668 191.741 29.8369 191.741 30.2516C191.741 30.3664 191.73 30.4621 191.708 30.5371C191.524 30.5626 190.858 30.5626 190.638 30.5562L190.636 30.5546ZM190.633 30.2133L191.211 30.2021C191.219 30.0203 191.127 29.8799 190.95 29.8799C190.758 29.8799 190.633 30.0251 190.633 30.2133ZM192.012 29.5274C192.045 29.4796 192.559 29.4573 192.593 29.4908C192.589 29.5689 192.585 29.6901 192.581 29.7125C192.662 29.5897 192.843 29.4525 193.14 29.4525C193.541 29.4525 193.791 29.7747 193.791 30.2532C193.791 30.502 193.776 31.1273 193.761 31.3091C193.757 31.3458 193.205 31.3394 193.194 31.3314C193.18 31.3234 193.197 30.4494 193.197 30.317C193.197 30.1176 193.109 29.9756 192.917 29.9756C192.714 29.9756 192.594 30.1351 192.594 30.2787C192.594 30.4047 192.591 31.2931 192.58 31.3091C192.569 31.3234 192.032 31.3171 192.021 31.2947C192.013 31.2804 191.999 30.3122 192.01 29.5274H192.012ZM195.487 30.0203C195.487 30.5499 195.81 30.762 196.123 30.762C196.437 30.762 196.624 30.6025 196.704 30.5435C196.788 30.6025 196.951 30.9024 197.01 31.0284C196.851 31.2102 196.48 31.3872 196.057 31.3872C195.196 31.3872 194.796 30.7684 194.796 29.9948C194.796 29.2212 195.318 28.6757 196.152 28.6757C196.575 28.6757 196.88 28.8097 196.994 28.9197C196.994 28.9931 196.839 29.3935 196.747 29.4716C196.614 29.3935 196.391 29.293 196.158 29.293C195.78 29.293 195.486 29.596 195.486 30.0187L195.487 30.0203ZM197.187 29.8576C197.19 29.7954 197.434 29.4461 197.926 29.4461C198.382 29.4461 198.735 29.7173 198.735 30.258C198.735 30.6551 198.716 31.2692 198.705 31.2915C198.694 31.3139 198.23 31.2915 198.23 31.2915L198.197 31.132C198.171 31.1576 198.016 31.3362 197.727 31.3362C197.326 31.3362 197.157 31.0985 197.157 30.7763C197.157 30.4542 197.448 30.2324 197.815 30.2324C197.985 30.2324 198.088 30.2803 198.157 30.3329C198.16 30.1734 198.168 29.9549 197.837 29.9549C197.61 29.9549 197.504 30.1176 197.47 30.1224C197.437 30.1224 197.184 29.9007 197.187 29.8592V29.8576ZM197.651 30.7652C197.651 30.888 197.754 30.9725 197.89 30.9725C198.051 30.9725 198.132 30.8768 198.132 30.7652C198.132 30.636 198.026 30.5546 197.89 30.5546C197.746 30.5546 197.651 30.6472 197.651 30.7652ZM199.096 29.5051C199.129 29.4493 199.643 29.4828 199.677 29.5163C199.673 29.5944 199.669 29.6949 199.665 29.7157C199.746 29.5928 199.885 29.4636 200.185 29.4636C200.39 29.4636 200.556 29.5673 200.655 29.73C200.78 29.5083 201.06 29.4636 201.21 29.4636C201.674 29.4636 201.88 29.7715 201.88 30.2452C201.88 30.4972 201.865 31.1384 201.854 31.3123C201.851 31.3458 201.292 31.3458 201.281 31.3346C201.27 31.3266 201.289 30.4781 201.289 30.3042C201.289 30.1304 201.242 29.9852 201.047 29.9852C200.852 29.9852 200.786 30.1846 200.786 30.2994C200.786 30.5658 200.775 31.1145 200.764 31.2995C200.761 31.333 200.205 31.3107 200.197 31.3027C200.183 31.2947 200.2 30.4286 200.2 30.3026C200.2 30.1208 200.148 29.9836 199.958 29.9836C199.768 29.9836 199.686 30.1463 199.686 30.2659C199.686 30.3728 199.678 31.3107 199.667 31.325C199.656 31.3394 199.119 31.333 199.108 31.3107C199.1 31.2963 199.086 30.2883 199.097 29.5019L199.096 29.5051ZM203.38 29.4636C203.814 29.4636 204.185 29.789 204.185 30.4047C204.185 31.0204 203.788 31.3266 203.336 31.3314C203.093 31.3314 202.891 31.2166 202.861 31.1687C202.861 31.2915 202.875 32.0763 202.842 32.0986C202.809 32.1241 202.305 32.1465 202.236 32.1098C202.225 32.1066 202.247 29.5354 202.28 29.4525C202.283 29.4413 202.831 29.4716 202.831 29.4716C202.831 29.4939 202.828 29.6503 202.828 29.671C202.853 29.6263 203.048 29.4636 203.378 29.4636H203.38ZM203.564 30.4127C203.564 30.1607 203.413 30.0267 203.214 30.0267C202.964 30.0267 202.847 30.1862 202.847 30.4079C202.847 30.6519 203.016 30.8003 203.199 30.8003C203.431 30.8003 203.564 30.6408 203.564 30.4111V30.4127ZM206.197 31.3027C206.164 31.3506 205.686 31.3362 205.649 31.3027C205.653 31.2246 205.649 31.1177 205.653 31.0922C205.572 31.2102 205.384 31.3665 205.108 31.3665C204.663 31.3665 204.45 31.0922 204.45 30.5738C204.45 30.3074 204.486 29.6742 204.497 29.4987C204.505 29.462 205.056 29.4684 205.067 29.4796C205.075 29.5211 205.037 30.3648 205.037 30.51C205.037 30.7173 205.126 30.8433 205.317 30.8433C205.52 30.8433 205.626 30.687 205.629 30.5243C205.629 30.4175 205.643 29.5051 205.659 29.4908C205.67 29.4764 206.203 29.4828 206.218 29.5051C206.221 29.5195 206.21 30.5132 206.195 31.3027H206.197ZM207.264 31.3729C206.897 31.3729 206.561 31.2246 206.51 31.1687C206.48 31.132 206.65 30.7285 206.68 30.7429C206.738 30.7732 206.966 30.939 207.202 30.939C207.349 30.939 207.422 30.8864 207.422 30.8051C207.422 30.7237 207.363 30.6791 207.124 30.6344C206.713 30.5642 206.521 30.3904 206.521 30.0793C206.521 29.6822 206.791 29.4525 207.242 29.4525C207.58 29.4525 207.878 29.5673 207.925 29.6152C207.959 29.6487 207.789 30.0379 207.764 30.041C207.745 30.041 207.511 29.8959 207.297 29.8959C207.153 29.8959 207.091 29.9661 207.091 30.041C207.091 30.1224 207.153 30.1591 207.367 30.1894C207.803 30.2516 208 30.4047 208 30.7492C208 31.0746 207.78 31.3713 207.264 31.3713V31.3729Z" fill="white"/>
<path d="M179.448 26.7931C178.81 26.8011 178.19 26.9941 177.663 27.3498C177.136 27.7039 176.729 28.2047 176.49 28.7869C176.251 29.3691 176.193 30.0087 176.322 30.6244C176.452 31.2401 176.762 31.8031 177.216 32.2449C177.671 32.6868 178.247 32.9866 178.872 33.1063C179.499 33.2259 180.146 33.1605 180.735 32.918C181.323 32.6756 181.825 32.2673 182.18 31.7441C182.533 31.2209 182.723 30.6068 182.723 29.9784C182.718 29.1283 182.37 28.3148 181.756 27.7183C181.141 27.1217 180.312 26.7884 179.45 26.7931H179.448Z" fill="#00ECBD"/>
<path d="M180.741 28.8033C180.732 28.6438 180.772 28.4859 180.855 28.3488H178.217C178.193 28.3488 178.17 28.3535 178.148 28.3615C178.125 28.3711 178.106 28.3838 178.089 28.3998C178.072 28.4157 178.059 28.4365 178.049 28.4572C178.04 28.478 178.035 28.5019 178.035 28.5258V29.0809C178.035 29.1048 178.04 29.1271 178.049 29.1495C178.059 29.1702 178.072 29.1909 178.089 29.2069C178.106 29.2228 178.125 29.2356 178.148 29.2452C178.17 29.2547 178.193 29.2579 178.217 29.2579H180.855C180.773 29.1207 180.734 28.9628 180.741 28.8033Z" fill="#141BEA"/>
<path d="M177.621 29.9886C177.629 30.1481 177.59 30.306 177.507 30.4432H180.146C180.169 30.4432 180.193 30.4384 180.215 30.4305C180.237 30.4209 180.256 30.4081 180.274 30.3922C180.291 30.3762 180.304 30.3555 180.313 30.3348C180.323 30.314 180.328 30.2901 180.328 30.2662V29.7111C180.328 29.6872 180.323 29.6648 180.313 29.6425C180.304 29.6218 180.291 29.601 180.274 29.5851C180.256 29.5691 180.237 29.5564 180.215 29.5468C180.193 29.5372 180.169 29.5341 180.146 29.5341H177.507C177.59 29.6712 177.629 29.8291 177.621 29.9886Z" fill="#141BEA"/>
<path d="M180.741 31.1769C180.732 31.0174 180.772 30.8595 180.855 30.7223H178.217C178.193 30.7223 178.17 30.7271 178.148 30.7351C178.125 30.7446 178.106 30.7574 178.089 30.7733C178.072 30.7893 178.059 30.81 178.049 30.8308C178.04 30.8515 178.035 30.8754 178.035 30.8993V31.4544C178.035 31.4783 178.04 31.5007 178.049 31.523C178.059 31.5437 178.072 31.5645 178.089 31.5804C178.106 31.5964 178.125 31.6091 178.148 31.6187C178.17 31.6283 178.193 31.6315 178.217 31.6315H180.855C180.773 31.4943 180.734 31.3364 180.741 31.1769Z" fill="#141BEA"/>
</svg>
