<svg width="15" height="14" viewBox="0 0 15 14" fill="none" xmlns="http://www.w3.org/2000/svg">
<path d="M7.5 13.5C11.0899 13.5 14 10.5899 14 7C14 3.41015 11.0899 0.5 7.5 0.5C3.91015 0.5 1 3.41015 1 7C1 10.5899 3.91015 13.5 7.5 13.5Z" stroke="#0037C2" stroke-linecap="round" stroke-linejoin="round"/>
<path d="M6 10H9" stroke="#0037C2" stroke-linecap="round" stroke-linejoin="round"/>
<path d="M7.5 10V6.5H6.5" stroke="#0037C2" stroke-linecap="round" stroke-linejoin="round"/>
<path d="M7.5 4.25C7.36193 4.25 7.25 4.13807 7.25 4C7.25 3.86193 7.36193 3.75 7.5 3.75" stroke="#0037C2" stroke-linecap="round" stroke-linejoin="round"/>
<path d="M7.5 4.25C7.63807 4.25 7.75 4.13807 7.75 4C7.75 3.86193 7.63807 3.75 7.5 3.75" stroke="#0037C2" stroke-linecap="round" stroke-linejoin="round"/>
</svg>
