<svg width="106" height="106" viewBox="0 0 106 106" fill="none" xmlns="http://www.w3.org/2000/svg">
<path d="M20.4968 60.9216L2.82537 68.7339C1.32301 63.8418 0.506104 58.6399 0.506104 53.2502C0.506104 34.7055 10.0742 18.3956 24.5438 9.00586C16.309 23.297 14.3559 42.3487 20.4874 60.9216H20.4968Z" fill="#0037C2"/>
<path d="M87.2674 31.4288L29.0793 57.1284C22.6568 38.4241 24.4596 19.1564 32.6568 4.68685C33.6991 4.23614 34.7507 3.82299 35.8305 3.45679C54.6945 0.658657 75.4551 11.4756 87.258 31.4288H87.2674Z" fill="#7094F4"/>
<path d="M98.647 26.3953L90.2902 30.0854C79.3605 11.475 60.6562 0.733162 42.8909 1.53129C46.243 0.855229 49.7078 0.507812 53.2571 0.507812C72.5718 0.507812 89.4827 10.8929 98.647 26.4047V26.3953Z" fill="#A9BFF8"/>
<path d="M65.0041 104.677C61.2294 105.541 57.2857 105.991 53.2575 105.991C34.4781 105.991 17.9991 96.1792 8.65637 81.3998L25.2762 72.1885C34.2527 89.1933 49.1073 100.902 65.0041 104.677Z" fill="#0037C2"/>
<path d="M83.5772 96.3954C81.3049 98.0105 78.9105 99.4283 76.4034 100.64C59.3611 97.7476 43.1544 85.6536 33.6051 67.5784L89.9246 36.3857C100.366 58.0854 97.3331 82.2921 83.5678 96.3954H83.5772Z" fill="#7094F4"/>
<path d="M106 53.2419C106 68.4627 99.5493 82.1717 89.2394 91.8149C100.639 77.4205 102.592 55.0166 92.8169 34.8005L100.789 30.3779C104.122 37.2888 105.991 45.0541 105.991 53.2513L106 53.2419Z" fill="#A9BFF8"/>
</svg>
