<svg width="72" height="72" viewBox="0 0 72 72" fill="none" xmlns="http://www.w3.org/2000/svg">
<rect x="0.5" y="0.5" width="71" height="71" rx="35.5" fill="white" fill-opacity="0.6"/>
<rect x="0.5" y="0.5" width="71" height="71" rx="35.5" stroke="#FCFCFC"/>
<path d="M23.5787 38.9089L16.8776 41.8714C16.3079 40.0163 15.9982 38.0437 15.9982 35.9999C15.9982 28.9677 19.6264 22.7829 25.1134 19.2223C21.9907 24.6416 21.2501 31.866 23.5752 38.9089H23.5787Z" fill="white"/>
<path d="M48.8983 27.725L26.8332 37.4705C24.3977 30.3777 25.0814 23.0713 28.1898 17.5844C28.585 17.4135 28.9838 17.2568 29.3933 17.118C36.5466 16.0569 44.4191 20.1587 48.8948 27.725H48.8983Z" fill="white"/>
<path d="M53.2136 25.8166L50.0447 27.216C45.9001 20.1588 38.8074 16.0855 32.0707 16.3881C33.3418 16.1317 34.6557 16 36.0016 16C43.3258 16 49.7385 19.9381 53.2136 25.8202V25.8166Z" fill="white"/>
<path d="M40.4561 55.5015C39.0248 55.8291 37.5293 56 36.0018 56C28.8806 56 22.6317 52.2791 19.0889 46.6747L25.3912 43.1818C28.7951 49.63 34.428 54.0701 40.4561 55.5015Z" fill="white"/>
<path d="M47.4991 52.361C46.6374 52.9734 45.7294 53.5111 44.7787 53.9704C38.3162 52.8737 32.1706 48.2877 28.5494 41.4335L49.906 29.6051C53.8654 37.8337 52.7154 47.013 47.4955 52.361H47.4991Z" fill="white"/>
<path d="M56.0018 35.9965C56.0018 41.7683 53.5557 46.9668 49.6461 50.6236C53.9687 45.1651 54.7093 36.6695 51.0027 29.0035L54.0257 27.3264C55.2897 29.947 55.9983 32.8917 55.9983 36.0001L56.0018 35.9965Z" fill="white"/>
</svg>
