<svg width="1440" height="182" viewBox="0 0 1440 182" fill="none" xmlns="http://www.w3.org/2000/svg">
<line x1="-90" y1="143.5" x2="235" y2="143.5" stroke="url(#paint0_linear_71_2724)"/>
<circle cx="17" cy="17" r="16.5" transform="matrix(1 0 0 -1 241 162.5)" stroke="#E5E5E5"/>
<line x1="258.5" y1="19.5" x2="258.5" y2="122.5" stroke="url(#paint1_linear_71_2724)"/>
<line x1="281" y1="143.5" x2="697" y2="143.5" stroke="#E5E5E5"/>
<circle cx="17" cy="17" r="16.5" transform="matrix(1 0 0 -1 703 162.5)" stroke="#E5E5E5"/>
<line x1="720.5" y1="19.5" x2="720.5" y2="122.5" stroke="url(#paint2_linear_71_2724)"/>
<line x1="743" y1="143.5" x2="1159" y2="143.5" stroke="#E5E5E5"/>
<circle cx="17" cy="17" r="16.5" transform="matrix(1 0 0 -1 1165 162.5)" stroke="#E5E5E5"/>
<line x1="1182.5" y1="19.5" x2="1182.5" y2="122.5" stroke="url(#paint3_linear_71_2724)"/>
<line y1="-0.5" x2="325" y2="-0.5" transform="matrix(-1 0 0 1 1530 144)" stroke="url(#paint4_linear_71_2724)"/>
<defs>
<linearGradient id="paint0_linear_71_2724" x1="-90" y1="144.5" x2="235" y2="144.5" gradientUnits="userSpaceOnUse">
<stop stop-color="white"/>
<stop offset="1" stop-color="#E5E5E5"/>
</linearGradient>
<linearGradient id="paint1_linear_71_2724" x1="257.5" y1="19.5" x2="257.5" y2="122.5" gradientUnits="userSpaceOnUse">
<stop stop-color="white"/>
<stop offset="1" stop-color="#E5E5E5"/>
</linearGradient>
<linearGradient id="paint2_linear_71_2724" x1="719.5" y1="19.5" x2="719.5" y2="122.5" gradientUnits="userSpaceOnUse">
<stop stop-color="white"/>
<stop offset="1" stop-color="#E5E5E5"/>
</linearGradient>
<linearGradient id="paint3_linear_71_2724" x1="1181.5" y1="19.5" x2="1181.5" y2="122.5" gradientUnits="userSpaceOnUse">
<stop stop-color="white"/>
<stop offset="1" stop-color="#E5E5E5"/>
</linearGradient>
<linearGradient id="paint4_linear_71_2724" x1="0" y1="0.5" x2="325" y2="0.5" gradientUnits="userSpaceOnUse">
<stop stop-color="white"/>
<stop offset="1" stop-color="#E5E5E5"/>
</linearGradient>
</defs>
</svg>
