<svg width="1360" height="682" viewBox="0 0 1360 682" fill="none" xmlns="http://www.w3.org/2000/svg">
<line x1="49.0714" y1="2.18557e-08" x2="49.0714" y2="682" stroke="url(#paint0_linear_71_2555)"/>
<line x1="146.214" y1="2.18557e-08" x2="146.214" y2="682" stroke="url(#paint1_linear_71_2555)"/>
<line x1="243.357" y1="2.18557e-08" x2="243.357" y2="682" stroke="url(#paint2_linear_71_2555)"/>
<line x1="340.5" y1="2.18557e-08" x2="340.5" y2="682" stroke="url(#paint3_linear_71_2555)"/>
<line x1="437.643" y1="2.18557e-08" x2="437.643" y2="682" stroke="url(#paint4_linear_71_2555)"/>
<line x1="534.786" y1="2.18557e-08" x2="534.786" y2="682" stroke="url(#paint5_linear_71_2555)"/>
<line x1="631.929" y1="2.18557e-08" x2="631.929" y2="682" stroke="url(#paint6_linear_71_2555)"/>
<line x1="729.072" y1="2.18557e-08" x2="729.072" y2="682" stroke="url(#paint7_linear_71_2555)"/>
<line x1="826.214" y1="2.18557e-08" x2="826.214" y2="682" stroke="url(#paint8_linear_71_2555)"/>
<line x1="923.357" y1="2.18557e-08" x2="923.357" y2="682" stroke="url(#paint9_linear_71_2555)"/>
<line x1="1020.5" y1="2.18557e-08" x2="1020.5" y2="682" stroke="url(#paint10_linear_71_2555)"/>
<line x1="1117.64" y1="2.18557e-08" x2="1117.64" y2="682" stroke="url(#paint11_linear_71_2555)"/>
<line x1="1214.79" y1="2.18557e-08" x2="1214.79" y2="682" stroke="url(#paint12_linear_71_2555)"/>
<line x1="1311.93" y1="2.18557e-08" x2="1311.93" y2="682" stroke="url(#paint13_linear_71_2555)"/>
<defs>
<linearGradient id="paint0_linear_71_2555" x1="48.0714" y1="-2.18557e-08" x2="48.0714" y2="682" gradientUnits="userSpaceOnUse">
<stop offset="0.00961538" stop-color="white" stop-opacity="0"/>
<stop offset="1" stop-color="#FCFCFC" stop-opacity="0.4"/>
</linearGradient>
<linearGradient id="paint1_linear_71_2555" x1="145.214" y1="-2.18557e-08" x2="145.214" y2="682" gradientUnits="userSpaceOnUse">
<stop offset="0.00961538" stop-color="white" stop-opacity="0"/>
<stop offset="1" stop-color="#FCFCFC" stop-opacity="0.4"/>
</linearGradient>
<linearGradient id="paint2_linear_71_2555" x1="242.357" y1="-2.18557e-08" x2="242.357" y2="682" gradientUnits="userSpaceOnUse">
<stop offset="0.00961538" stop-color="white" stop-opacity="0"/>
<stop offset="1" stop-color="#FCFCFC" stop-opacity="0.4"/>
</linearGradient>
<linearGradient id="paint3_linear_71_2555" x1="339.5" y1="-2.18557e-08" x2="339.5" y2="682" gradientUnits="userSpaceOnUse">
<stop offset="0.00961538" stop-color="white" stop-opacity="0"/>
<stop offset="1" stop-color="#FCFCFC" stop-opacity="0.4"/>
</linearGradient>
<linearGradient id="paint4_linear_71_2555" x1="436.643" y1="-2.18557e-08" x2="436.643" y2="682" gradientUnits="userSpaceOnUse">
<stop offset="0.00961538" stop-color="white" stop-opacity="0"/>
<stop offset="1" stop-color="#FCFCFC" stop-opacity="0.4"/>
</linearGradient>
<linearGradient id="paint5_linear_71_2555" x1="533.786" y1="-2.18557e-08" x2="533.786" y2="682" gradientUnits="userSpaceOnUse">
<stop offset="0.00961538" stop-color="white" stop-opacity="0"/>
<stop offset="1" stop-color="#FCFCFC" stop-opacity="0.4"/>
</linearGradient>
<linearGradient id="paint6_linear_71_2555" x1="630.929" y1="-2.18557e-08" x2="630.929" y2="682" gradientUnits="userSpaceOnUse">
<stop offset="0.00961538" stop-color="white" stop-opacity="0"/>
<stop offset="1" stop-color="#FCFCFC" stop-opacity="0.4"/>
</linearGradient>
<linearGradient id="paint7_linear_71_2555" x1="728.072" y1="-2.18557e-08" x2="728.072" y2="682" gradientUnits="userSpaceOnUse">
<stop offset="0.00961538" stop-color="white" stop-opacity="0"/>
<stop offset="1" stop-color="#FCFCFC" stop-opacity="0.4"/>
</linearGradient>
<linearGradient id="paint8_linear_71_2555" x1="825.214" y1="-2.18557e-08" x2="825.214" y2="682" gradientUnits="userSpaceOnUse">
<stop offset="0.00961538" stop-color="white" stop-opacity="0"/>
<stop offset="1" stop-color="#FCFCFC" stop-opacity="0.4"/>
</linearGradient>
<linearGradient id="paint9_linear_71_2555" x1="922.357" y1="-2.18557e-08" x2="922.357" y2="682" gradientUnits="userSpaceOnUse">
<stop offset="0.00961538" stop-color="white" stop-opacity="0"/>
<stop offset="1" stop-color="#FCFCFC" stop-opacity="0.4"/>
</linearGradient>
<linearGradient id="paint10_linear_71_2555" x1="1019.5" y1="-2.18557e-08" x2="1019.5" y2="682" gradientUnits="userSpaceOnUse">
<stop offset="0.00961538" stop-color="white" stop-opacity="0"/>
<stop offset="1" stop-color="#FCFCFC" stop-opacity="0.4"/>
</linearGradient>
<linearGradient id="paint11_linear_71_2555" x1="1116.64" y1="-2.18557e-08" x2="1116.64" y2="682" gradientUnits="userSpaceOnUse">
<stop offset="0.00961538" stop-color="white" stop-opacity="0"/>
<stop offset="1" stop-color="#FCFCFC" stop-opacity="0.4"/>
</linearGradient>
<linearGradient id="paint12_linear_71_2555" x1="1213.79" y1="-2.18557e-08" x2="1213.79" y2="682" gradientUnits="userSpaceOnUse">
<stop offset="0.00961538" stop-color="white" stop-opacity="0"/>
<stop offset="1" stop-color="#FCFCFC" stop-opacity="0.4"/>
</linearGradient>
<linearGradient id="paint13_linear_71_2555" x1="1310.93" y1="-2.18557e-08" x2="1310.93" y2="682" gradientUnits="userSpaceOnUse">
<stop offset="0.00961538" stop-color="white" stop-opacity="0"/>
<stop offset="1" stop-color="#FCFCFC" stop-opacity="0.4"/>
</linearGradient>
</defs>
</svg>
