<svg width="28" height="22" viewBox="0 0 28 22" fill="none" xmlns="http://www.w3.org/2000/svg">
<mask id="mask0_478_2983" style="mask-type:luminance" maskUnits="userSpaceOnUse" x="0" y="0" width="28" height="22">
<rect y="0.5" width="28" height="21" fill="white"/>
</mask>
<g mask="url(#mask0_478_2983)">
<path fill-rule="evenodd" clip-rule="evenodd" d="M0 0.5V21.5H28V0.5H0Z" fill="#EA1A1A"/>
<mask id="mask1_478_2983" style="mask-type:luminance" maskUnits="userSpaceOnUse" x="0" y="0" width="28" height="22">
<path fill-rule="evenodd" clip-rule="evenodd" d="M0 0.5V21.5H28V0.5H0Z" fill="white"/>
</mask>
<g mask="url(#mask1_478_2983)">
<path fill-rule="evenodd" clip-rule="evenodd" d="M13.8858 10.6277C13.8858 10.6277 8.81984 6.10987 14.8651 3.47754C14.8651 3.47754 16.6231 5.41708 15.3043 7.59448C14.8716 8.30863 14.5066 8.81858 14.2324 9.20182L14.2324 9.20183C13.6705 9.98699 13.4893 10.2402 13.8858 10.6277ZM6.40915 7.38388C6.06122 13.9681 12.3673 11.4566 12.3673 11.4566C11.8436 11.638 11.6981 11.3627 11.2471 10.5094C11.0269 10.0927 10.7338 9.53824 10.2884 8.83183C8.93041 6.67849 6.40915 7.38388 6.40915 7.38388ZM15.9584 10.8485C15.9584 10.8485 22.4613 12.7953 18.1003 17.7405C18.1003 17.7405 15.6859 16.7279 15.9584 14.1971C16.0478 13.3672 16.1623 12.7508 16.2484 12.2875L16.2484 12.2875L16.2484 12.2875C16.4247 11.338 16.4816 11.0316 15.9584 10.8485ZM14.2491 12.3663C14.2491 12.3663 15.4149 19.0533 9.04196 17.3634C9.04196 17.3634 8.86846 14.7512 11.2541 13.8635C12.0367 13.5723 12.6394 13.3991 13.0923 13.2689C14.0201 13.0022 14.3194 12.9162 14.2491 12.3663ZM22.2938 9.4907C18.3078 4.23879 15.1146 10.2285 15.1146 10.2285C15.3974 9.75174 15.6863 9.86799 16.5815 10.2282C17.0188 10.4042 17.6007 10.6384 18.3973 10.8901C20.8245 11.6572 22.2938 9.4907 22.2938 9.4907Z" fill="white"/>
<path d="M8.89111 9.43213C8.89111 9.43213 10.1649 11.4369 12.251 11.4369" stroke="#EA1A1A" stroke-width="0.5"/>
<path d="M13.8777 6.66895C13.8777 6.66895 12.7345 8.7779 13.7139 10.6198" stroke="#EA1A1A" stroke-width="0.5"/>
<path d="M19.3462 9.0415C19.3462 9.0415 16.6773 8.6369 15.2814 10.1872" stroke="#EA1A1A" stroke-width="0.5"/>
<path d="M17.7874 13.9268C17.7874 13.9268 17.2547 11.2804 15.3206 10.499" stroke="#EA1A1A" stroke-width="0.5"/>
<path d="M12.1917 15.3633C12.1917 15.3633 14.4962 13.9577 14.569 11.8729" stroke="#EA1A1A" stroke-width="0.5"/>
</g>
</g>
</svg>
