<svg width="32" height="24" viewBox="0 0 32 24" fill="none" xmlns="http://www.w3.org/2000/svg">
<mask id="mask0_478_2977" style="mask-type:luminance" maskUnits="userSpaceOnUse" x="0" y="0" width="32" height="24">
<rect width="32" height="24" fill="white"/>
</mask>
<g mask="url(#mask0_478_2977)">
<path fill-rule="evenodd" clip-rule="evenodd" d="M0 0V24H32V0H0Z" fill="#2E42A5"/>
<mask id="mask1_478_2977" style="mask-type:luminance" maskUnits="userSpaceOnUse" x="0" y="0" width="32" height="24">
<path fill-rule="evenodd" clip-rule="evenodd" d="M0 0V24H32V0H0Z" fill="white"/>
</mask>
<g mask="url(#mask1_478_2977)">
<mask id="mask2_478_2977" style="mask-type:luminance" maskUnits="userSpaceOnUse" x="0" y="0" width="32" height="24">
<rect width="32" height="24" fill="white"/>
</mask>
<g mask="url(#mask2_478_2977)">
<path d="M-3.56299 22.2851L3.4787 25.2632L32.1599 3.23756L35.8743 -1.18792L28.3442 -2.18327L16.6458 7.3082L7.2298 13.7032L-3.56299 22.2851Z" fill="white"/>
<path d="M-2.59888 24.3719L0.988539 26.1001L34.5406 -1.59884H29.5034L-2.59888 24.3719Z" fill="#F50100"/>
<path d="M35.5632 22.2851L28.5215 25.2632L-0.159695 3.23756L-3.87402 -1.18792L3.65605 -2.18327L15.3544 7.3082L24.7704 13.7032L35.5632 22.2851Z" fill="white"/>
<path d="M35.323 23.7825L31.7356 25.5107L17.4488 13.6514L13.213 12.3264L-4.23139 -1.17283H0.805759L18.2404 12.006L22.8714 13.5948L35.323 23.7825Z" fill="#F50100"/>
<mask id="path-9-inside-1_478_2977" fill="white">
<path fill-rule="evenodd" clip-rule="evenodd" d="M19.7778 -2H12.2223V8H-1.97241V16H12.2223V26H19.7778V16H34.0276V8H19.7778V-2Z"/>
</mask>
<path fill-rule="evenodd" clip-rule="evenodd" d="M19.7778 -2H12.2223V8H-1.97241V16H12.2223V26H19.7778V16H34.0276V8H19.7778V-2Z" fill="#F50100"/>
<path d="M12.2223 -2V-3H11.2223V-2H12.2223ZM19.7778 -2H20.7778V-3H19.7778V-2ZM12.2223 8V9H13.2223V8H12.2223ZM-1.97241 8V7H-2.97241V8H-1.97241ZM-1.97241 16H-2.97241V17H-1.97241V16ZM12.2223 16H13.2223V15H12.2223V16ZM12.2223 26H11.2223V27H12.2223V26ZM19.7778 26V27H20.7778V26H19.7778ZM19.7778 16V15H18.7778V16H19.7778ZM34.0276 16V17H35.0276V16H34.0276ZM34.0276 8H35.0276V7H34.0276V8ZM19.7778 8H18.7778V9H19.7778V8ZM12.2223 -1H19.7778V-3H12.2223V-1ZM13.2223 8V-2H11.2223V8H13.2223ZM-1.97241 9H12.2223V7H-1.97241V9ZM-0.972412 16V8H-2.97241V16H-0.972412ZM12.2223 15H-1.97241V17H12.2223V15ZM13.2223 26V16H11.2223V26H13.2223ZM19.7778 25H12.2223V27H19.7778V25ZM18.7778 16V26H20.7778V16H18.7778ZM34.0276 15H19.7778V17H34.0276V15ZM33.0276 8V16H35.0276V8H33.0276ZM19.7778 9H34.0276V7H19.7778V9ZM18.7778 -2V8H20.7778V-2H18.7778Z" fill="white" mask="url(#path-9-inside-1_478_2977)"/>
</g>
</g>
</g>
</svg>
